<svg width="48" height="48" viewBox="0 0 48 48" stroke="hsl(0, 0%, 0%)" fill="none" stroke-width="3" stroke-linecap="round" stroke-linejoin="round"  xmlns="http://www.w3.org/2000/svg">
    <circle cx="24" cy="24" r="19"/>
<path d="M21 21C21 23.2091 19.2091 25 17 25C14.7909 25 13 23.2091 13 21C13 19.8091 13.5061 17.7075 14.3677 15.8935C14.7945 14.9951 15.2791 14.2312 15.7779 13.7076C16.2876 13.1724 16.7009 13 17 13C17.2991 13 17.7124 13.1724 18.2221 13.7076C18.7209 14.2312 19.2055 14.9951 19.6323 15.8935C20.4939 17.7075 21 19.8091 21 21Z"/>
<path d="M36 21C36 23.2091 34.2091 25 32 25C29.7909 25 28 23.2091 28 21C28 19.8091 28.5061 17.7075 29.3677 15.8935C29.7945 14.9951 30.2791 14.2312 30.7779 13.7076C31.2876 13.1724 31.7009 13 32 13C32.2991 13 32.7124 13.1724 33.2221 13.7076C33.7209 14.2312 34.2055 14.9951 34.6323 15.8935C35.4939 17.7075 36 19.8091 36 21Z"/>
<circle cx="17" cy="21" r="1" stroke="none" fill="hsl(0, 0%, 0%)"/>
<circle cx="32" cy="21" r="1" stroke="none" fill="hsl(0, 0%, 0%)"/>
<line x1="20" y1="35" x2="28" y2="35"/>
</svg>